<svg width="55" height="48" viewBox="0 0 55 48" fill="none" xmlns="http://www.w3.org/2000/svg">
<path d="M13.875 40.0312C14.5312 39 15.9375 38.7188 16.875 39.4688C17.9062 40.125 18.1875 41.5312 17.5312 42.5625L14.5312 47.0625C14.0625 47.7188 13.3125 48 12.6562 48C12.2812 48 11.8125 47.9062 11.4375 47.625C10.4062 46.9688 10.125 45.5625 10.875 44.5312L13.875 40.0312ZM22.875 40.0312C23.5312 39 24.9375 38.7188 25.875 39.4688C26.9062 40.125 27.1875 41.5312 26.5312 42.5625L23.5312 47.0625C23.0625 47.7188 22.3125 48 21.6562 48C21.2812 48 20.8125 47.9062 20.4375 47.625C19.4062 46.9688 19.125 45.5625 19.875 44.5312L22.875 40.0312ZM31.875 40.0312C32.5312 39 33.9375 38.7188 34.875 39.4688C35.9062 40.125 36.1875 41.5312 35.5312 42.5625L32.5312 47.0625C32.0625 47.7188 31.3125 48 30.6562 48C30.2812 48 29.8125 47.9062 29.4375 47.625C28.4062 46.9688 28.125 45.5625 28.875 44.5312L31.875 40.0312ZM34.0312 17.25C37.0312 19.0312 39 22.3125 39 25.875C39 31.5 34.4062 36 28.875 36H10.125C4.5 36 0 31.5 0 25.875C0 21.375 2.90625 17.625 6.9375 16.3125C8.8125 12 13.0312 9 18 9C20.5312 9 22.9688 9.84375 24.9375 11.3438C25.2188 11.3438 25.5 11.25 25.875 11.25C29.625 11.25 32.9062 13.7812 34.0312 17.25ZM28.875 31.5C31.9688 31.5 34.5 29.0625 34.5 25.875C34.5 23.1562 32.5312 20.9062 29.9062 20.4375C29.9062 20.25 30 20.0625 30 19.875C30 17.625 28.125 15.75 25.875 15.75C25.125 15.75 24.375 16.0312 23.8125 16.4062C22.4062 14.625 20.3438 13.5 18 13.5C14.0625 13.5 10.875 16.5 10.5 20.3438C10.4062 20.3438 10.2188 20.25 10.125 20.25C6.9375 20.25 4.5 22.7812 4.5 25.875C4.5 29.0625 6.9375 31.5 10.125 31.5H28.875ZM53.1562 21C53.8125 20.9062 54.1875 21.5625 53.8125 22.0312C51.2812 25.125 47.4375 27 43.2188 27C42.75 27 42.375 26.9062 41.9062 26.9062C41.9062 26.5312 42 26.25 42 25.875C42 21.6562 39.8438 17.7188 36.4688 15.2812C35.25 12.5625 33.0938 10.4062 30.4688 9.28125C32.25 3.9375 37.2188 0 43.2188 0C44.0625 0 44.9062 0.09375 45.75 0.28125C46.3125 0.375 46.4062 1.125 45.9375 1.40625C42.5625 3.28125 40.5 6.84375 40.5 10.5938C40.5 17.25 46.5938 22.3125 53.1562 21ZM4.875 40.0312C5.53125 39 6.9375 38.7188 7.96875 39.4688C9 40.125 9.28125 41.5312 8.53125 42.5625L5.53125 47.0625C5.15625 47.7188 4.40625 48 3.65625 48C3.28125 48 2.8125 47.9062 2.4375 47.625C1.40625 46.9688 1.125 45.5625 1.875 44.5312L4.875 40.0312Z" fill="#94AEDE"/>
</svg>
