<svg width="98" height="20" viewBox="0 0 98 20" fill="none" xmlns="http://www.w3.org/2000/svg">
<path d="M24.36 10.36C24.6667 10.36 24.8867 10.4267 25.02 10.56C25.1667 10.6933 25.24 10.8667 25.24 11.08C25.24 11.4267 25.1333 11.7333 24.92 12C24.72 12.2667 24.4 12.4067 23.96 12.42C22.9067 12.4333 21.96 12.3533 21.12 12.18C20.1867 14.1667 19.06 15.82 17.74 17.14C16.4333 18.4467 15.14 19.1 13.86 19.1C12.6867 19.1 11.8067 18.48 11.22 17.24C10.6333 15.9867 10.3 14.3133 10.22 12.22C9.42 14.54 8.51333 16.2667 7.5 17.4C6.5 18.5333 5.43333 19.1 4.3 19.1C3.02 19.1 2.05333 18.3067 1.4 16.72C0.746667 15.12 0.42 12.9733 0.42 10.28C0.42 8.32 0.593333 6.16667 0.94 3.82C1.03333 3.15333 1.2 2.69333 1.44 2.44C1.69333 2.17333 2.08667 2.04 2.62 2.04C3.02 2.04 3.32667 2.12667 3.54 2.3C3.76667 2.47333 3.88 2.79333 3.88 3.26C3.88 3.35333 3.86667 3.53333 3.84 3.8C3.44 6.53333 3.24 8.86 3.24 10.78C3.24 12.5667 3.39333 13.9467 3.7 14.92C4.00667 15.8933 4.42 16.38 4.94 16.38C5.40667 16.38 5.96667 15.8933 6.62 14.92C7.28667 13.9333 7.94667 12.48 8.6 10.56C9.25333 8.62667 9.80667 6.32667 10.26 3.66C10.3667 3.04667 10.56 2.62667 10.84 2.4C11.1333 2.16 11.5267 2.04 12.02 2.04C12.4333 2.04 12.7333 2.13333 12.92 2.32C13.12 2.49333 13.22 2.76 13.22 3.12C13.22 3.33333 13.2067 3.5 13.18 3.62C12.8067 5.79333 12.62 7.96667 12.62 10.14C12.62 11.62 12.6667 12.8 12.76 13.68C12.8667 14.56 13.06 15.2333 13.34 15.7C13.6333 16.1533 14.0533 16.38 14.6 16.38C15.24 16.38 15.9533 15.9 16.74 14.94C17.5267 13.9667 18.2467 12.76 18.9 11.32C18.0867 10.8133 17.4733 10.16 17.06 9.36C16.6467 8.54667 16.44 7.61333 16.44 6.56C16.44 5.50667 16.6 4.62 16.92 3.9C17.2533 3.16667 17.7 2.62 18.26 2.26C18.8333 1.9 19.4667 1.72 20.16 1.72C21.0133 1.72 21.6867 2.02667 22.18 2.64C22.6867 3.25333 22.94 4.09333 22.94 5.16C22.94 6.66667 22.6133 8.34 21.96 10.18C22.64 10.3 23.44 10.36 24.36 10.36ZM18.46 6.42C18.46 7.72667 18.88 8.69333 19.72 9.32C20.24 7.82667 20.5 6.59333 20.5 5.62C20.5 5.06 20.4267 4.65333 20.28 4.4C20.1333 4.13333 19.9333 4 19.68 4C19.32 4 19.0267 4.21333 18.8 4.64C18.5733 5.05333 18.46 5.64667 18.46 6.42ZM32.2159 14.54C32.3893 14.54 32.5226 14.62 32.6159 14.78C32.7226 14.94 32.7759 15.16 32.7759 15.44C32.7759 15.9733 32.6493 16.3867 32.3959 16.68C31.9026 17.28 31.2026 17.8333 30.2959 18.34C29.4026 18.8467 28.4426 19.1 27.4159 19.1C26.0159 19.1 24.9293 18.72 24.1559 17.96C23.3826 17.2 22.9959 16.16 22.9959 14.84C22.9959 13.92 23.1893 13.0667 23.5759 12.28C23.9626 11.48 24.4959 10.8467 25.1759 10.38C25.8693 9.91333 26.6493 9.68 27.5159 9.68C28.2893 9.68 28.9093 9.91333 29.3759 10.38C29.8426 10.8333 30.0759 11.4533 30.0759 12.24C30.0759 13.16 29.7426 13.9533 29.0759 14.62C28.4226 15.2733 27.3093 15.7933 25.7359 16.18C26.0693 16.7933 26.7026 17.1 27.6359 17.1C28.2359 17.1 28.9159 16.8933 29.6759 16.48C30.4493 16.0533 31.1159 15.5 31.6759 14.82C31.8359 14.6333 32.0159 14.54 32.2159 14.54ZM27.1759 11.64C26.6826 11.64 26.2626 11.9267 25.9159 12.5C25.5826 13.0733 25.4159 13.7667 25.4159 14.58V14.62C26.2026 14.4333 26.8226 14.1533 27.2759 13.78C27.7293 13.4067 27.9559 12.9733 27.9559 12.48C27.9559 12.2267 27.8826 12.0267 27.7359 11.88C27.6026 11.72 27.4159 11.64 27.1759 11.64ZM33.5098 19.1C32.6832 19.1 32.0232 18.8 31.5298 18.2C31.0365 17.6 30.7898 16.8133 30.7898 15.84C30.7898 14.7733 31.0365 13.7667 31.5298 12.82C32.0232 11.86 32.6765 11.0933 33.4898 10.52C34.3165 9.93333 35.1898 9.64 36.1098 9.64C36.4032 9.64 36.5965 9.7 36.6898 9.82C36.7965 9.92667 36.8832 10.1267 36.9498 10.42C37.2298 10.3667 37.5232 10.34 37.8298 10.34C38.4832 10.34 38.8098 10.5733 38.8098 11.04C38.8098 11.32 38.7098 11.9867 38.5098 13.04C38.2032 14.5733 38.0498 15.64 38.0498 16.24C38.0498 16.44 38.0965 16.6 38.1898 16.72C38.2965 16.84 38.4298 16.9 38.5898 16.9C38.8432 16.9 39.1498 16.74 39.5098 16.42C39.8698 16.0867 40.3565 15.5533 40.9698 14.82C41.1298 14.6333 41.3098 14.54 41.5098 14.54C41.6832 14.54 41.8165 14.62 41.9098 14.78C42.0165 14.94 42.0698 15.16 42.0698 15.44C42.0698 15.9733 41.9432 16.3867 41.6898 16.68C41.1432 17.36 40.5632 17.9333 39.9498 18.4C39.3365 18.8667 38.7432 19.1 38.1698 19.1C37.7298 19.1 37.3232 18.9533 36.9498 18.66C36.5898 18.3533 36.3165 17.94 36.1298 17.42C35.4365 18.54 34.5632 19.1 33.5098 19.1ZM34.2298 17.08C34.5232 17.08 34.8032 16.9067 35.0698 16.56C35.3365 16.2133 35.5298 15.7533 35.6498 15.18L36.3898 11.5C35.8298 11.5133 35.3098 11.7267 34.8298 12.14C34.3632 12.54 33.9898 13.0733 33.7098 13.74C33.4298 14.4067 33.2898 15.1133 33.2898 15.86C33.2898 16.2733 33.3698 16.58 33.5298 16.78C33.7032 16.98 33.9365 17.08 34.2298 17.08ZM49.3644 14.54C49.5377 14.54 49.671 14.62 49.7644 14.78C49.871 14.94 49.9244 15.16 49.9244 15.44C49.9244 15.9733 49.7977 16.3867 49.5444 16.68C48.971 17.3867 48.3444 17.9667 47.6644 18.42C46.9844 18.8733 46.2044 19.1 45.3244 19.1C42.6044 19.1 41.2444 17.1867 41.2444 13.36C41.2444 12.7733 41.2644 12.18 41.3044 11.58H40.5244C40.1244 11.58 39.851 11.5067 39.7044 11.36C39.571 11.2133 39.5044 10.98 39.5044 10.66C39.5044 9.91333 39.8044 9.54 40.4044 9.54H41.5444C41.771 8.07333 42.1177 6.73333 42.5844 5.52C43.051 4.30667 43.611 3.34 44.2644 2.62C44.931 1.9 45.6444 1.54 46.4044 1.54C46.9644 1.54 47.4044 1.78667 47.7244 2.28C48.0444 2.77333 48.2044 3.39333 48.2044 4.14C48.2044 6.20667 47.3377 8.00667 45.6044 9.54H47.8444C48.0577 9.54 48.211 9.58667 48.3044 9.68C48.3977 9.77333 48.4444 9.94667 48.4444 10.2C48.4444 11.12 47.691 11.58 46.1844 11.58H43.7444C43.7177 12.2467 43.7044 12.7667 43.7044 13.14C43.7044 14.5267 43.8644 15.5 44.1844 16.06C44.5177 16.62 45.0377 16.9 45.7444 16.9C46.3177 16.9 46.8244 16.7267 47.2644 16.38C47.7044 16.0333 48.2244 15.5133 48.8244 14.82C48.9844 14.6333 49.1644 14.54 49.3644 14.54ZM45.8644 3.46C45.6644 3.46 45.4377 3.71333 45.1844 4.22C44.9444 4.71333 44.711 5.40667 44.4844 6.3C44.271 7.18 44.091 8.16 43.9444 9.24C44.731 8.56 45.3177 7.8 45.7044 6.96C46.1044 6.10667 46.3044 5.33333 46.3044 4.64C46.3044 3.85333 46.1577 3.46 45.8644 3.46ZM59.3959 14.54C59.5693 14.54 59.7026 14.62 59.7959 14.78C59.9026 14.94 59.9559 15.16 59.9559 15.44C59.9559 15.9733 59.8293 16.3867 59.5759 16.68C58.9626 17.3867 58.3293 17.9667 57.6759 18.42C57.0359 18.8733 56.3026 19.1 55.4759 19.1C54.7959 19.1 54.2826 18.9067 53.9359 18.52C53.5893 18.12 53.4159 17.5467 53.4159 16.8C53.4159 16.4267 53.5093 15.76 53.6959 14.8C53.8693 13.96 53.9559 13.38 53.9559 13.06C53.9559 12.8467 53.8826 12.74 53.7359 12.74C53.5626 12.74 53.3159 12.9667 52.9959 13.42C52.6759 13.86 52.3559 14.4467 52.0359 15.18C51.7159 15.9133 51.4559 16.6867 51.2559 17.5C51.0026 18.5667 50.3759 19.1 49.3759 19.1C48.9759 19.1 48.7093 18.96 48.5759 18.68C48.4559 18.3867 48.3959 17.8667 48.3959 17.12C48.3959 16.6933 48.4026 16.3533 48.4159 16.1L48.4359 14.5C48.4359 12.4467 48.6426 10.3067 49.0559 8.08C49.4826 5.85333 50.1026 3.98667 50.9159 2.48C51.7426 0.959999 52.7293 0.199999 53.8759 0.199999C54.4893 0.199999 54.9826 0.466666 55.3559 0.999999C55.7426 1.52 55.9359 2.2 55.9359 3.04C55.9359 4.38667 55.5426 5.78667 54.7559 7.24C53.9693 8.68 52.6893 10.3667 50.9159 12.3C50.8759 12.9933 50.8559 13.7067 50.8559 14.44C51.2959 13.3067 51.7826 12.3867 52.3159 11.68C52.8626 10.96 53.3959 10.4467 53.9159 10.14C54.4493 9.83333 54.9359 9.68 55.3759 9.68C56.2426 9.68 56.6759 10.1133 56.6759 10.98C56.6759 11.5 56.5293 12.44 56.2359 13.8C55.9826 14.96 55.8559 15.7267 55.8559 16.1C55.8559 16.6333 56.0493 16.9 56.4359 16.9C56.7026 16.9 57.0159 16.74 57.3759 16.42C57.7493 16.0867 58.2426 15.5533 58.8559 14.82C59.0159 14.6333 59.1959 14.54 59.3959 14.54ZM53.4559 2.18C53.2159 2.18 52.9493 2.52667 52.6559 3.22C52.3626 3.9 52.0759 4.82667 51.7959 6C51.5293 7.16 51.3093 8.42667 51.1359 9.8C51.9626 8.82667 52.6426 7.76667 53.1759 6.62C53.7226 5.47333 53.9959 4.43333 53.9959 3.5C53.9959 3.07333 53.9493 2.74667 53.8559 2.52C53.7626 2.29333 53.6293 2.18 53.4559 2.18ZM67.255 14.54C67.4283 14.54 67.5617 14.62 67.655 14.78C67.7617 14.94 67.815 15.16 67.815 15.44C67.815 15.9733 67.6883 16.3867 67.435 16.68C66.9417 17.28 66.2417 17.8333 65.335 18.34C64.4417 18.8467 63.4817 19.1 62.455 19.1C61.055 19.1 59.9683 18.72 59.195 17.96C58.4217 17.2 58.035 16.16 58.035 14.84C58.035 13.92 58.2283 13.0667 58.615 12.28C59.0017 11.48 59.535 10.8467 60.215 10.38C60.9083 9.91333 61.6883 9.68 62.555 9.68C63.3283 9.68 63.9483 9.91333 64.415 10.38C64.8817 10.8333 65.115 11.4533 65.115 12.24C65.115 13.16 64.7817 13.9533 64.115 14.62C63.4617 15.2733 62.3483 15.7933 60.775 16.18C61.1083 16.7933 61.7417 17.1 62.675 17.1C63.275 17.1 63.955 16.8933 64.715 16.48C65.4883 16.0533 66.155 15.5 66.715 14.82C66.875 14.6333 67.055 14.54 67.255 14.54ZM62.215 11.64C61.7217 11.64 61.3017 11.9267 60.955 12.5C60.6217 13.0733 60.455 13.7667 60.455 14.58V14.62C61.2417 14.4333 61.8617 14.1533 62.315 13.78C62.7683 13.4067 62.995 12.9733 62.995 12.48C62.995 12.2267 62.9217 12.0267 62.775 11.88C62.6417 11.72 62.455 11.64 62.215 11.64ZM74.2666 12.42C74.5599 12.42 74.8066 12.5267 75.0066 12.74C75.2199 12.94 75.3266 13.1933 75.3266 13.5C75.3266 13.6733 75.2866 13.86 75.2066 14.06C74.9932 14.5533 74.6932 14.9667 74.3066 15.3C73.9199 15.6333 73.4932 15.8 73.0266 15.8C72.6532 15.8 72.3332 15.6667 72.0666 15.4C71.8132 15.1333 71.6866 14.7733 71.6866 14.32C71.6866 14.0667 71.6999 13.7933 71.7266 13.5C71.7532 13.2867 71.7666 13.14 71.7666 13.06C71.7666 12.9533 71.7399 12.8733 71.6866 12.82C71.6466 12.7667 71.5932 12.74 71.5266 12.74C71.3399 12.74 71.0866 12.9667 70.7666 13.42C70.4466 13.86 70.1266 14.4467 69.8066 15.18C69.4866 15.9133 69.2266 16.6867 69.0266 17.5C68.8799 18.14 68.7132 18.5667 68.5266 18.78C68.3399 18.9933 68.0332 19.1 67.6066 19.1C67.0999 19.1 66.7399 18.8333 66.5266 18.3C66.3266 17.7667 66.2266 16.9133 66.2266 15.74C66.2266 14.0067 66.4732 12.36 66.9666 10.8C67.0866 10.4133 67.2799 10.1333 67.5466 9.96C67.8266 9.77333 68.2132 9.68 68.7066 9.68C68.9732 9.68 69.1599 9.71333 69.2666 9.78C69.3732 9.84667 69.4266 9.97333 69.4266 10.16C69.4266 10.3733 69.3266 10.8533 69.1266 11.6C68.9932 12.1333 68.8866 12.6 68.8066 13C68.7266 13.4 68.6599 13.8933 68.6066 14.48C69.0466 13.3333 69.5399 12.4 70.0866 11.68C70.6332 10.96 71.1666 10.4467 71.6866 10.14C72.2066 9.83333 72.6799 9.68 73.1066 9.68C73.4932 9.68 73.7866 9.79333 73.9866 10.02C74.1999 10.2333 74.3066 10.5533 74.3066 10.98C74.3066 11.2333 74.2332 11.7133 74.0866 12.42H74.2666ZM84.6489 16.76C84.9289 16.76 85.1422 16.8533 85.2889 17.04C85.4356 17.2267 85.5089 17.46 85.5089 17.74C85.5089 18.0867 85.3956 18.4 85.1689 18.68C84.9556 18.9467 84.6622 19.08 84.2889 19.08C83.6489 19.08 82.6956 19.0333 81.4289 18.94C81.1756 18.9267 80.7089 18.9 80.0289 18.86C79.3489 18.82 78.8156 18.8 78.4289 18.8C78.2556 18.8 78.0022 18.86 77.6689 18.98C77.6022 18.9933 77.4689 19.0267 77.2689 19.08C77.0822 19.1333 76.9222 19.16 76.7889 19.16C76.5756 19.16 76.3956 19.0667 76.2489 18.88C76.1156 18.68 76.0489 18.3867 76.0489 18C76.0489 17.5733 76.1489 17.2467 76.3489 17.02C76.5489 16.78 76.8622 16.5667 77.2889 16.38C78.1956 15.98 79.0489 15.4733 79.8489 14.86C80.6622 14.2333 81.3089 13.56 81.7889 12.84C82.2822 12.12 82.5289 11.4333 82.5289 10.78C82.5289 10.26 82.4089 9.88 82.1689 9.64C81.9422 9.38667 81.5756 9.26 81.0689 9.26C80.4822 9.26 80.0089 9.42 79.6489 9.74C79.3022 10.06 79.1289 10.5067 79.1289 11.08C79.1289 11.8667 78.7356 12.26 77.9489 12.26C77.5756 12.26 77.2822 12.1533 77.0689 11.94C76.8689 11.7267 76.7689 11.42 76.7689 11.02C76.7689 10.3533 76.9422 9.74 77.2889 9.18C77.6356 8.62 78.1556 8.17333 78.8489 7.84C79.5422 7.49333 80.3889 7.32 81.3889 7.32C82.5889 7.32 83.5289 7.62 84.2089 8.22C84.8889 8.82 85.2289 9.65333 85.2289 10.72C85.2289 11.7333 84.7822 12.7933 83.8889 13.9C83.0089 15.0067 81.7356 15.9867 80.0689 16.84L84.6489 16.76ZM96.3003 14.5C97.007 14.5 97.3603 14.8 97.3603 15.4C97.3603 15.88 97.227 16.2133 96.9603 16.4C96.6936 16.5867 96.2736 16.68 95.7003 16.68H95.2803L95.2003 17.74C95.1603 18.3533 95.027 18.7667 94.8003 18.98C94.587 19.1933 94.2336 19.3 93.7403 19.3C93.0336 19.3 92.6803 18.8667 92.6803 18C92.6803 17.8533 92.687 17.74 92.7003 17.66L92.8003 16.68C90.867 16.68 89.4003 16.6733 88.4003 16.66C88.107 16.66 87.847 16.5267 87.6203 16.26C87.3936 15.9933 87.2803 15.6467 87.2803 15.22C87.2803 14.9667 87.327 14.7 87.4203 14.42C88.007 12.7133 88.887 10.7733 90.0603 8.6C90.3136 8.13333 90.567 7.80667 90.8203 7.62C91.087 7.42 91.4936 7.32 92.0403 7.32C92.3336 7.32 92.5536 7.38667 92.7003 7.52C92.8603 7.65333 92.9403 7.82667 92.9403 8.04C92.9403 8.26667 92.8736 8.49333 92.7403 8.72C91.4336 11.1067 90.5136 13.0333 89.9803 14.5H93.0603C93.2203 13.26 93.4403 12.08 93.7203 10.96C93.827 10.5467 94.0003 10.2333 94.2403 10.02C94.4803 9.79333 94.8136 9.68 95.2403 9.68C95.9203 9.68 96.2603 9.97333 96.2603 10.56C96.2603 10.7333 96.247 10.8667 96.2203 10.96C95.9803 12.0933 95.767 13.2733 95.5803 14.5H96.3003Z" fill="#3D3741"/>
</svg>